<?xml version="1.0" standalone="no"?>
<!DOCTYPE svg PUBLIC "-//W3C//DTD SVG 20010904//EN"
 "http://www.w3.org/TR/2001/REC-SVG-20010904/DTD/svg10.dtd">
<svg version="1.0" xmlns="http://www.w3.org/2000/svg"
 width="187.000000pt" height="187.000000pt" viewBox="0 0 187.000000 187.000000"
 preserveAspectRatio="xMidYMid meet">
<metadata>
Created by potrace 1.11, written by Peter Selinger 2001-2013
</metadata>
<g transform="translate(0.000000,187.000000) scale(0.100000,-0.100000)"
fill="#000000" stroke="none">
<path d="M875 1854 c-70 -19 -162 -64 -242 -117 -51 -34 -93 -65 -93 -69 0 -5
-8 -17 -17 -27 -10 -11 -34 -41 -53 -68 -19 -26 -37 -50 -41 -53 -6 -6 -63
-125 -72 -152 -4 -10 -2 -18 3 -18 6 0 10 6 10 14 0 8 6 16 14 19 7 3 16 18
19 34 8 41 110 191 165 242 26 24 64 52 84 63 20 11 42 26 49 34 6 8 19 14 28
14 9 0 29 7 45 15 15 8 34 15 41 15 7 0 24 9 38 20 23 19 37 20 124 17 110 -5
128 -8 232 -44 77 -26 145 -62 137 -71 -3 -3 -12 0 -19 6 -8 7 -63 28 -123 48
-92 31 -123 36 -199 37 -89 0 -185 -20 -230 -48 -11 -7 -31 -16 -44 -20 -13
-4 -31 -13 -40 -21 -9 -7 -35 -27 -58 -44 -42 -29 -58 -55 -28 -44 12 5 14 2
8 -12 -6 -17 -5 -17 10 -6 9 8 16 17 15 20 -2 20 3 32 15 32 7 0 19 9 27 20 8
11 18 20 23 20 5 0 23 6 40 14 37 16 58 23 71 24 5 0 12 4 15 9 10 14 81 33
81 21 0 -6 7 -5 16 3 21 18 40 18 136 2 104 -17 107 -18 143 -33 17 -6 35 -13
40 -14 6 -1 15 -4 20 -8 6 -3 46 -25 90 -48 86 -45 102 -56 93 -66 -7 -7 -53
17 -112 59 -21 15 -46 27 -55 27 -9 0 -25 7 -35 15 -11 8 -30 15 -42 15 -13 0
-25 4 -28 9 -7 11 -56 20 -186 35 -14 2 -43 -3 -64 -11 -21 -7 -51 -15 -65
-18 -69 -12 -200 -89 -201 -117 0 -9 -14 -28 -32 -42 -18 -14 -29 -28 -25 -33
5 -4 29 16 54 45 25 28 51 52 58 52 7 0 15 6 18 14 7 17 151 70 171 63 8 -3
16 -1 18 4 3 9 70 14 147 10 49 -2 148 -34 201 -64 30 -17 71 -40 91 -50 20
-9 44 -25 55 -35 10 -10 39 -29 64 -42 51 -29 55 -32 93 -82 31 -42 48 -49 40
-18 -3 11 -9 20 -13 20 -4 0 -20 18 -35 40 -15 22 -39 43 -51 46 -13 4 -24 10
-24 15 0 5 -9 9 -19 9 -11 0 -23 5 -26 10 -3 6 0 10 8 10 23 0 87 -29 87 -40
0 -6 6 -10 13 -10 8 0 19 -11 25 -25 6 -14 16 -25 22 -25 5 0 10 -5 10 -11 0
-25 47 -56 78 -51 l31 4 -29 40 c-33 45 -92 109 -141 153 l-33 30 37 -47 c41
-51 45 -60 22 -52 -8 4 -15 11 -15 17 0 15 -103 122 -115 119 -5 -2 -14 3 -20
11 -11 16 -95 70 -95 62 0 -3 -14 2 -31 11 -17 8 -38 17 -47 19 -10 3 -44 14
-77 26 -60 21 -252 35 -300 23z m565 -179 c22 -14 40 -30 40 -35 0 -6 6 -10
14 -10 7 0 19 -7 26 -15 29 -35 -18 -7 -113 67 -33 26 -12 21 33 -7z m188
-143 c6 -18 -15 -14 -22 4 -4 10 -1 14 6 12 6 -2 14 -10 16 -16z"/>
<path d="M694 1832 c-45 -16 -113 -63 -166 -114 -10 -10 -22 -18 -27 -18 -6 0
-20 -17 -33 -38 -13 -21 -38 -57 -57 -80 -33 -39 -107 -202 -93 -202 4 0 0 -5
-8 -10 -12 -7 -12 -12 -2 -22 9 -9 12 -8 12 5 0 10 6 20 14 23 8 3 12 13 9 25
-7 26 16 81 31 72 6 -3 8 -3 4 2 -12 13 46 105 109 175 13 14 23 27 23 31 0
10 197 139 213 139 8 0 17 7 21 15 3 8 4 15 3 15 -1 -1 -25 -9 -53 -18z"/>
<path d="M503 1758 c-13 -6 -23 -15 -23 -20 0 -4 -7 -8 -15 -8 -8 0 -15 -3
-15 -7 0 -5 -10 -20 -23 -34 -64 -75 -82 -100 -120 -164 -22 -38 -47 -77 -54
-86 -8 -9 -15 -26 -16 -38 -1 -11 -6 -21 -12 -21 -5 0 -18 -18 -27 -40 -12
-29 -21 -38 -33 -34 -11 5 -13 10 -5 19 5 6 7 15 3 19 -4 4 1 4 11 0 13 -5 17
-4 13 3 -8 13 11 73 23 73 4 0 11 11 14 24 3 13 27 52 53 87 78 103 104 141
100 146 -3 2 -22 -16 -42 -41 -20 -25 -41 -43 -46 -41 -4 3 -25 -20 -45 -52
-21 -32 -46 -71 -57 -86 -10 -16 -20 -35 -21 -43 -3 -19 -26 -43 -26 -26 0 7
5 12 11 12 5 0 7 5 4 11 -10 15 -52 -50 -82 -129 -45 -116 -61 -204 -62 -342
-2 -131 17 -247 53 -335 8 -19 16 -39 16 -43 3 -16 22 -30 35 -26 9 4 11 14 6
32 -4 15 -7 64 -6 110 1 75 -1 82 -17 76 -10 -3 -18 -1 -18 4 0 12 25 34 31
27 3 -2 6 5 6 17 2 16 -1 18 -10 9 -17 -17 -24 -13 -24 14 0 16 5 25 16 25 13
0 13 2 2 9 -11 7 -11 9 0 14 10 4 10 6 2 6 -7 1 -13 6 -13 12 0 6 7 9 15 5 17
-6 21 9 5 19 -5 3 -10 24 -10 46 0 28 4 38 12 33 6 -4 9 -3 5 2 -9 16 20 109
34 106 10 -2 10 0 -1 13 -17 20 -7 29 18 16 15 -8 23 -6 37 9 21 24 55 118 48
135 -4 11 21 77 49 128 5 11 7 22 4 25 -10 9 -24 -11 -30 -41 -3 -16 -9 -34
-14 -40 -5 -7 -26 -56 -47 -109 -21 -54 -42 -98 -48 -98 -5 0 -6 10 -2 23 4
12 7 30 6 40 0 9 4 15 9 12 6 -3 7 1 4 9 -5 14 53 137 68 144 4 2 5 9 2 16 -2
6 10 33 28 60 18 26 38 55 43 64 38 63 88 130 110 146 14 10 25 24 25 31 0 7
7 15 15 19 8 3 15 12 15 20 0 8 9 18 20 21 11 3 20 11 20 16 0 11 1 11 -27 -3z
m-333 -472 c0 -8 -4 -18 -10 -21 -5 -3 -10 -15 -10 -26 0 -10 -4 -27 -9 -37
-5 -9 -14 -29 -20 -44 -10 -27 -31 -39 -31 -18 0 6 5 10 10 10 6 0 10 10 10
22 0 12 8 30 18 41 9 11 11 17 5 13 -17 -9 -16 -3 1 39 15 35 36 47 36 21z
m-74 -625 c-2 -44 -16 -50 -16 -8 0 21 4 37 9 37 5 0 8 -13 7 -29z m14 -98 c0
-26 -16 -12 -18 15 -1 21 0 23 8 12 5 -8 10 -21 10 -27z"/>
<path d="M895 1709 c-33 -11 -64 -21 -70 -23 -29 -9 -51 -21 -58 -33 -4 -7
-14 -13 -21 -13 -14 0 -87 -72 -149 -147 -19 -23 -38 -39 -41 -35 -4 3 -4 -1
0 -11 10 -26 22 -21 50 26 47 75 175 187 215 187 9 0 29 7 46 15 40 20 142 33
179 23 16 -4 42 -10 57 -13 15 -3 47 -12 70 -21 23 -8 50 -18 60 -21 9 -3 17
-9 17 -14 0 -5 7 -9 16 -9 9 0 39 -13 66 -30 26 -16 52 -30 57 -30 4 0 20 -11
34 -24 14 -13 28 -22 30 -20 2 2 27 -19 56 -46 28 -28 56 -48 62 -45 24 15
-135 138 -284 220 -136 75 -288 99 -392 64z"/>
<path d="M967 1674 c-4 -4 -20 -8 -35 -9 -86 -4 -208 -73 -263 -150 -18 -25
-35 -45 -39 -45 -6 0 -40 -65 -40 -77 0 -3 6 0 13 6 14 11 27 5 27 -11 0 -5
-12 -8 -27 -6 -20 2 -30 -3 -39 -19 -6 -13 -14 -20 -18 -16 -4 4 -5 1 -1 -7 6
-17 -60 -99 -70 -88 -4 4 2 20 14 37 12 16 28 46 37 66 8 20 19 33 24 30 6 -3
10 6 10 21 0 23 -2 25 -15 14 -30 -25 -26 -1 9 54 41 65 41 62 21 70 -8 3 -14
1 -12 -3 1 -5 -2 -10 -8 -11 -18 -2 -17 31 1 51 21 23 16 30 -14 22 -18 -4
-21 -10 -16 -27 4 -11 3 -18 -1 -14 -4 4 -23 -23 -42 -60 -51 -100 -71 -136
-82 -149 -16 -17 -13 -26 4 -19 21 8 19 -17 -5 -66 -11 -23 -20 -46 -20 -52 0
-16 31 19 35 40 2 10 4 21 4 23 1 2 8 -2 16 -9 11 -9 12 -17 4 -31 -7 -15 -6
-19 6 -19 8 0 15 4 15 9 0 5 9 7 20 4 11 -3 20 0 20 6 0 6 5 11 11 11 5 0 7
-5 3 -12 -4 -6 -3 -8 3 -5 6 4 13 20 17 37 3 17 10 29 14 26 5 -3 9 0 9 7 0
19 34 68 43 62 5 -3 -2 -25 -15 -50 -35 -64 -35 -77 -3 -81 23 -2 33 5 58 42
17 24 35 44 40 44 6 0 10 5 10 11 0 16 88 101 142 137 25 18 57 31 70 30 13
-1 38 2 57 6 24 6 31 5 27 -3 -4 -6 -3 -11 3 -11 5 0 12 4 15 9 6 9 43 4 61
-9 6 -4 32 -10 59 -14 27 -3 63 -16 80 -29 17 -13 39 -26 49 -30 9 -3 17 -13
17 -22 0 -8 4 -15 9 -15 5 0 19 -16 32 -35 20 -30 28 -35 51 -31 24 5 30 1 48
-34 11 -22 24 -40 29 -40 5 0 11 -15 14 -32 12 -69 52 -208 61 -208 8 0 5 39
-7 88 -7 25 8 30 17 6 4 -9 9 -14 12 -12 5 6 -30 75 -47 93 -5 5 -9 14 -9 21
0 23 -163 255 -199 282 -20 15 -65 43 -101 62 -59 30 -84 36 -172 39 -16 1
-28 6 -28 12 0 7 24 9 73 6 61 -4 83 -10 146 -46 41 -22 77 -41 80 -41 21 0
177 -216 222 -307 36 -74 49 -85 49 -44 0 16 -4 33 -10 36 -5 3 -10 13 -10 21
0 11 6 13 20 9 15 -5 20 -2 20 14 0 27 -20 38 -32 17 -13 -23 -29 -9 -66 57
-17 29 -38 61 -49 72 -10 11 -33 40 -50 65 -17 25 -39 52 -49 61 -25 22 -134
81 -134 72 0 -3 -8 1 -18 10 -22 20 -138 39 -182 30 -27 -5 -32 -3 -26 8 5 9
3 9 -6 -1 -7 -9 -29 -17 -48 -18 -39 -3 -120 -39 -120 -53 0 -5 -8 -13 -17
-16 -25 -9 -113 -94 -113 -109 0 -13 -29 -28 -38 -19 -3 2 1 12 9 22 8 10 19
24 24 31 6 7 18 22 28 33 9 10 17 22 17 27 0 4 12 15 28 24 15 10 44 29 64 43
21 14 40 25 43 25 10 -1 81 12 125 24 51 13 55 13 125 2 64 -10 248 -101 275
-136 3 -4 17 -10 32 -14 15 -3 43 -22 62 -42 19 -20 40 -34 46 -32 19 6 -81
96 -150 134 -123 67 -149 80 -195 96 -57 19 -177 33 -188 22z m-2 -84 c-3 -5
-12 -10 -18 -10 -7 0 -44 -13 -82 -29 -51 -22 -86 -46 -133 -92 -35 -35 -68
-72 -74 -82 -10 -19 -10 -19 16 -1 14 11 26 22 26 27 0 4 5 7 10 7 18 0 10
-14 -34 -64 -29 -32 -48 -46 -56 -41 -8 5 -11 4 -6 -3 10 -16 -14 -61 -30 -55
-11 4 -7 19 18 67 18 33 35 63 38 66 3 3 18 23 34 45 33 45 46 58 101 101 56
43 63 46 120 60 64 16 78 16 70 4z m113 -44 c45 -4 130 -44 166 -77 11 -12 32
-27 46 -36 27 -16 73 -80 68 -94 -2 -4 -21 13 -43 40 -22 26 -53 56 -70 66
-78 46 -101 57 -123 61 -13 3 -41 11 -62 18 -21 7 -53 11 -71 9 -19 -2 -48 -5
-65 -7 -18 -1 -48 -13 -68 -25 -19 -12 -40 -20 -46 -16 -5 3 -10 0 -11 -7 -1
-19 -66 -71 -74 -59 -3 6 3 18 13 28 35 33 80 67 94 69 7 2 38 12 68 23 36 14
69 19 95 15 22 -2 59 -6 83 -8z m-541 -56 c-9 -14 -17 -17 -22 -11 -3 6 -12 8
-18 5 -7 -4 -1 5 12 20 29 31 52 20 28 -14z m-52 -90 c-14 -28 -24 -57 -22
-63 3 -7 8 -4 13 8 4 11 14 26 21 33 7 8 10 18 7 24 -4 7 -2 8 4 4 23 -14 11
-50 -33 -107 -28 -34 -45 -26 -45 22 0 34 16 74 57 142 3 5 10 4 15 -1 6 -6 0
-28 -17 -62z"/>
<path d="M576 1585 c-4 -13 -2 -14 14 -5 23 13 26 20 6 20 -8 0 -16 -7 -20
-15z"/>
<path d="M946 1482 c-2 -4 -19 -6 -38 -6 -18 1 -41 -5 -50 -14 -10 -8 -18 -12
-18 -8 0 8 -19 -7 -73 -59 -49 -47 -97 -105 -97 -118 0 -4 -7 -15 -15 -23 -19
-19 -19 -34 -1 -34 8 0 24 20 36 44 11 24 40 64 63 89 45 48 130 101 150 94 7
-3 0 -9 -15 -15 -82 -33 -216 -174 -206 -217 4 -17 28 -5 31 16 3 20 17 39 28
39 5 0 0 -17 -11 -37 -24 -45 -25 -63 -5 -63 8 0 15 5 15 10 0 6 4 10 10 10 6
0 5 -10 -2 -25 -10 -21 -9 -29 5 -43 11 -10 17 -12 17 -4 0 7 -5 12 -12 12 -6
0 -2 10 10 23 12 13 22 29 22 35 0 7 4 12 8 12 9 0 42 53 42 67 0 5 -7 10 -15
10 -8 0 -15 -6 -15 -14 0 -13 -12 -17 -23 -7 -8 8 34 54 45 48 4 -3 8 0 8 5 0
6 5 11 12 11 6 0 19 7 29 16 19 17 58 20 142 11 53 -6 77 3 42 17 -8 3 -15 10
-15 15 0 5 11 4 25 -2 14 -7 25 -15 25 -19 0 -5 9 -8 20 -8 26 0 26 20 0 27
-10 3 -22 14 -25 24 -4 10 -14 20 -23 21 -9 0 -21 2 -27 3 -5 2 -20 3 -32 4
-34 2 -28 21 6 21 41 0 81 -17 81 -34 0 -8 14 -17 31 -21 17 -4 33 -13 36 -21
2 -7 14 -16 24 -19 15 -5 18 -12 14 -28 -4 -13 -3 -17 2 -10 6 8 15 1 31 -23
29 -44 14 -44 -32 1 -20 19 -38 35 -40 35 -2 0 -3 -11 -2 -24 0 -13 6 -22 13
-19 18 7 46 -43 38 -68 -4 -13 -3 -19 2 -16 5 4 20 -29 33 -71 28 -91 35 -102
44 -67 5 19 2 33 -9 45 -9 10 -15 27 -13 37 3 10 -4 34 -13 55 -16 30 -16 37
-4 42 17 6 29 -9 19 -26 -4 -6 -3 -8 4 -5 6 5 13 -8 17 -33 7 -42 13 -48 32
-29 15 15 -28 116 -57 136 -11 8 -17 19 -14 25 4 7 2 8 -4 4 -7 -4 -12 -1 -12
6 -1 20 -52 71 -93 92 -39 20 -48 36 -22 36 18 0 27 -7 89 -65 44 -41 93 -109
114 -157 6 -16 16 -28 22 -28 18 0 0 73 -24 95 -12 11 -33 36 -46 57 -13 20
-38 44 -55 54 -16 10 -37 26 -45 35 -9 11 -34 19 -65 22 -27 2 -57 7 -65 10
-25 9 -100 16 -104 9z m34 -43 c0 -5 -7 -9 -16 -9 -11 0 -15 -6 -11 -19 4 -16
0 -19 -24 -19 -16 1 -37 -6 -47 -15 -10 -10 -24 -17 -30 -17 -7 0 -12 -5 -12
-12 0 -6 -3 -8 -7 -5 -3 4 -21 -9 -39 -28 -17 -19 -38 -35 -45 -35 -18 1 88
98 121 111 24 11 46 17 64 18 4 1 6 10 3 21 -5 20 9 30 31 22 6 -2 12 -8 12
-13z m50 -50 c0 -10 -23 -17 -37 -11 -23 8 -14 22 12 20 14 -1 25 -6 25 -9z
m-250 -158 c0 -16 -27 -37 -36 -28 -4 4 25 47 32 47 2 0 4 -9 4 -19z"/>
<path d="M1425 1421 c8 -16 28 -43 43 -61 26 -28 29 -29 27 -9 -2 23 -60 99
-76 99 -5 0 -3 -13 6 -29z"/>
<path d="M905 1325 c-30 -14 -42 -24 -30 -24 29 -1 124 27 97 28 -13 1 -20 6
-17 11 8 13 8 13 -50 -15z"/>
<path d="M332 1319 c-5 -14 -22 -43 -36 -64 -26 -38 -33 -65 -17 -65 13 0 74
127 68 142 -3 8 -9 3 -15 -13z"/>
<path d="M373 1308 c-6 -7 -14 -24 -18 -38 -4 -14 -14 -33 -23 -42 -12 -15
-13 -18 -1 -18 19 0 45 18 37 25 -3 4 0 23 8 42 16 37 14 52 -3 31z"/>
<path d="M270 1291 c0 -6 4 -12 8 -15 5 -3 9 1 9 9 0 8 -4 15 -9 15 -4 0 -8
-4 -8 -9z"/>
<path d="M1357 1292 c-4 -6 -1 -17 8 -25 8 -8 17 -28 20 -45 4 -24 1 -31 -14
-35 -14 -3 -19 -12 -17 -28 6 -42 19 -83 32 -104 8 -11 14 -27 14 -37 0 -9 4
-19 8 -22 14 -9 0 97 -16 121 -14 23 -11 53 7 53 6 0 13 -17 17 -37 4 -21 13
-50 20 -64 7 -15 10 -30 6 -33 -4 -4 1 -12 11 -17 9 -6 17 -21 17 -34 0 -13 4
-26 9 -30 6 -3 8 -14 6 -25 -2 -11 1 -20 7 -20 15 0 -1 101 -19 122 -8 9 -12
22 -8 28 4 7 0 26 -8 43 -9 18 -23 57 -32 88 -18 61 -57 119 -68 101z"/>
<path d="M1180 1274 c0 -5 7 -19 15 -30 8 -10 15 -14 15 -8 0 5 -7 19 -15 30
-8 10 -15 14 -15 8z"/>
<path d="M1736 1254 c-4 -15 -1 -38 8 -55 16 -32 11 -39 -10 -11 -12 16 -13
16 -14 -4 0 -11 3 -24 8 -28 4 -4 7 -11 7 -14 1 -4 9 -23 20 -42 10 -19 20
-39 21 -45 2 -5 7 -25 13 -42 5 -18 8 -33 6 -33 -6 0 -65 126 -65 138 0 6 -5
14 -11 18 -18 11 -1 -69 27 -126 13 -27 24 -56 24 -63 0 -7 5 -18 12 -25 7 -7
9 -12 6 -12 -4 0 0 -23 8 -51 19 -62 13 -76 -6 -17 -8 24 -20 52 -27 64 -7 11
-10 24 -7 27 4 4 2 12 -3 19 -6 7 -18 37 -28 66 -19 53 -35 68 -35 33 0 -16
22 -71 48 -123 10 -20 -25 -5 -44 20 l-22 27 5 -30 c3 -16 10 -32 14 -35 4 -3
10 -17 12 -30 9 -46 19 -85 27 -110 5 -14 12 -43 14 -65 3 -22 10 -62 15 -90
5 -27 10 -59 10 -70 1 -17 -1 -17 -9 -5 -5 8 -10 29 -10 47 0 17 -5 44 -11 60
-6 15 -17 60 -24 98 -16 85 -39 148 -54 153 -12 4 -11 -33 0 -53 3 -5 12 -38
19 -73 11 -52 11 -65 0 -75 -10 -9 -11 -9 -6 1 4 7 3 18 -2 25 -5 7 -12 29
-16 50 -16 88 -24 22 -21 -175 3 -159 1 -204 -6 -178 l-11 35 -14 -25 c-8 -15
-13 -19 -14 -10 0 9 7 26 16 38 9 13 14 29 11 36 -3 7 -1 19 3 26 4 7 5 22 1
33 -4 11 -4 39 -1 63 7 43 -2 75 -16 61 -4 -4 -9 -42 -10 -84 -5 -132 -3 -121
-18 -94 -11 19 -14 21 -19 7 -3 -8 -2 -18 4 -22 12 -7 6 -71 -8 -85 -6 -6 -9
23 -8 71 1 44 5 83 8 87 4 3 7 -1 7 -10 0 -10 4 -17 9 -17 5 0 8 8 6 18 -2 9
-4 27 -4 40 -1 36 -28 25 -37 -15 -4 -21 -7 -41 -6 -45 1 -4 -3 -31 -8 -60
-12 -64 -35 -94 -25 -33 3 22 8 54 9 70 2 17 7 45 10 63 6 29 4 33 -11 30 -12
-3 -17 -12 -16 -26 2 -19 -7 -71 -21 -117 -1 -5 -6 -27 -11 -47 -4 -22 -13
-38 -21 -38 -18 0 -18 4 3 43 9 18 18 46 19 62 1 17 5 50 8 73 5 33 3 43 -6
39 -7 -2 -12 -10 -10 -17 2 -7 -1 -25 -7 -39 -6 -14 -12 -39 -15 -56 -6 -42
-24 -85 -35 -85 -6 0 -1 25 9 55 25 74 36 145 21 145 -14 0 -18 -11 -26 -63
-3 -21 -12 -52 -21 -69 -9 -17 -14 -41 -11 -53 3 -16 -5 -31 -25 -50 -15 -15
-28 -30 -28 -34 0 -8 -108 -63 -155 -79 -54 -19 -95 -24 -95 -13 0 6 6 12 13
12 6 1 21 3 32 4 34 4 169 71 198 99 15 14 32 26 37 26 5 0 7 16 5 36 -1 20 4
52 12 72 28 67 40 146 24 156 -10 6 -27 -42 -36 -102 -8 -50 -11 -61 -18 -68
-4 -4 -7 -19 -7 -33 0 -14 -6 -34 -13 -43 -12 -15 -14 -15 -25 2 -6 11 -8 22
-3 25 5 3 12 -1 15 -7 3 -7 5 -4 4 7 -1 11 2 31 6 43 4 13 10 34 12 45 2 12
12 61 22 110 12 52 16 90 10 93 -12 8 -13 6 -26 -41 l-11 -40 3 39 c2 21 1 34
-4 30 -9 -11 -41 -106 -45 -137 -4 -33 -23 -77 -34 -77 -5 0 -14 -13 -21 -29
-6 -16 -19 -32 -28 -35 -9 -3 -24 -10 -32 -15 -8 -5 -33 -17 -55 -26 -22 -10
-43 -19 -46 -21 -4 -2 -12 2 -18 9 -8 10 -7 14 2 15 64 6 122 35 166 83 27 30
35 43 29 52 -1 1 4 12 11 25 19 36 -5 25 -29 -12 -32 -52 -91 -101 -101 -84
-5 8 -9 9 -9 2 0 -7 -7 -14 -14 -17 -10 -4 -13 -1 -10 8 5 11 42 31 51 27 5
-3 63 60 63 68 0 5 6 11 13 14 6 3 0 4 -14 1 -15 -3 -41 -18 -58 -34 -32 -30
-90 -47 -144 -43 -40 3 -30 -22 10 -26 30 -3 56 -32 29 -32 -18 0 -67 26 -76
40 -3 6 -16 12 -29 15 -12 2 -36 16 -54 31 -34 27 -82 102 -73 112 4 3 7 3 9
1 1 -2 13 -17 27 -33 20 -23 21 -28 7 -23 -11 4 -16 3 -12 -4 4 -6 14 -8 22
-5 11 4 13 2 9 -9 -3 -8 -2 -14 2 -12 4 1 24 -9 45 -22 30 -19 48 -22 83 -18
52 5 57 8 48 31 -4 11 -10 13 -18 7 -18 -15 -91 -8 -110 12 -10 9 -21 17 -25
17 -14 0 -82 107 -94 147 -11 36 -11 36 -15 11 -2 -15 2 -36 7 -47 17 -30 14
-46 -4 -31 -13 10 -15 9 -15 -8 0 -37 17 -66 71 -122 29 -30 52 -62 50 -70 -2
-13 0 -13 8 -1 8 12 12 12 25 2 9 -8 16 -10 16 -6 0 4 13 -4 30 -18 16 -14 35
-27 42 -29 10 -4 10 -8 -1 -22 -12 -14 -25 -16 -59 -12 -50 6 -122 48 -122 71
0 8 -6 15 -14 15 -8 0 -18 9 -21 20 -3 11 -10 20 -16 20 -5 0 -15 16 -23 35
-14 33 -36 48 -36 25 0 -14 29 -71 44 -85 6 -7 22 -26 36 -44 13 -18 44 -44
67 -58 24 -14 43 -29 43 -35 0 -5 4 -7 9 -4 5 4 33 8 63 11 72 7 107 14 132
28 12 6 23 11 26 10 3 -1 23 11 44 25 40 27 100 103 109 138 4 16 5 15 6 -4 1
-22 -14 -61 -28 -72 -4 -3 -17 -20 -30 -38 -12 -18 -27 -30 -32 -27 -5 4 -9 1
-9 -5 0 -6 -17 -18 -37 -26 -21 -8 -46 -19 -57 -25 -19 -11 -90 -21 -139 -20
-25 0 -27 -2 -16 -15 7 -8 18 -13 25 -10 8 3 20 -2 29 -10 9 -10 15 -11 15 -4
0 7 7 10 15 7 8 -4 17 -2 20 3 4 6 17 10 30 10 13 0 27 5 30 11 4 6 14 8 22 5
8 -3 11 -1 8 4 -3 6 3 10 13 10 11 0 25 6 32 14 6 8 18 12 26 9 8 -3 14 1 14
10 0 11 6 13 21 10 21 -6 21 -6 -2 -24 -13 -10 -29 -19 -35 -19 -6 0 -17 -7
-24 -15 -7 -9 -15 -14 -17 -11 -3 2 -19 0 -36 -5 -18 -6 -43 -12 -56 -15 -36
-7 -43 -14 -30 -30 14 -17 -1 -19 -29 -5 -9 5 -30 13 -47 17 -16 5 -34 18 -40
29 -5 11 -19 20 -30 20 -11 0 -19 6 -17 13 1 8 -1 11 -6 8 -14 -8 -109 86
-146 144 -21 33 -36 48 -40 41 -4 -6 6 -33 23 -60 17 -26 31 -53 31 -60 0 -7
5 -9 10 -6 12 7 31 -10 49 -43 6 -12 16 -22 21 -22 5 0 30 -15 55 -32 26 -18
56 -38 67 -45 11 -6 24 -17 28 -23 13 -20 155 -13 200 11 23 12 54 23 66 24 6
0 18 5 25 11 8 6 23 14 33 18 17 6 17 4 5 -10 -7 -9 -47 -32 -87 -51 -61 -29
-87 -36 -153 -38 -52 -2 -79 0 -79 7 0 6 -8 4 -17 -4 -20 -17 -63 -8 -63 13 0
6 6 9 13 6 6 -3 20 -8 30 -12 10 -4 17 -3 17 3 0 10 -65 29 -82 24 -5 -1 -8 3
-8 10 0 6 -3 9 -6 5 -7 -7 -84 30 -84 41 -1 4 -21 30 -46 57 -25 28 -57 69
-71 93 -17 28 -29 40 -35 34 -7 -7 4 -31 30 -69 40 -59 124 -153 137 -153 3 0
27 -15 53 -33 26 -17 58 -37 72 -44 14 -6 19 -12 11 -12 -20 -1 -101 39 -101
50 0 5 -6 8 -12 6 -7 -1 -12 3 -11 10 2 7 -3 10 -10 8 -19 -8 -120 94 -161
163 -21 34 -41 60 -46 57 -9 -6 11 -55 23 -55 4 0 7 -5 7 -12 0 -15 48 -85 81
-118 14 -14 45 -39 70 -55 27 -18 44 -36 41 -44 -3 -10 0 -12 11 -8 17 6 143
-35 161 -53 5 -5 18 -10 28 -10 10 0 21 -6 23 -13 10 -25 161 -7 185 23 3 3
27 19 54 34 26 16 65 44 85 62 19 19 37 30 39 24 2 -6 -4 -18 -14 -25 -15 -12
-16 -14 -4 -15 9 0 46 29 83 64 37 35 69 60 72 56 3 -5 0 -12 -7 -17 -7 -4
-13 -14 -13 -22 0 -8 -9 -19 -20 -25 -11 -6 -27 -18 -35 -27 -8 -9 -34 -26
-57 -37 -23 -12 -44 -26 -48 -32 -3 -5 -15 -10 -26 -10 -10 0 -19 -5 -19 -12
0 -6 -3 -9 -6 -5 -3 3 -27 -7 -52 -22 -26 -15 -56 -30 -66 -34 -33 -13 -11
-17 29 -6 22 6 63 26 93 45 29 19 62 36 73 37 10 2 25 9 31 15 7 7 18 12 26
12 7 0 50 36 94 80 77 77 104 99 78 63 -8 -10 1 -4 18 14 22 22 32 42 33 65 1
18 3 25 6 15 6 -23 15 -22 32 4 8 15 9 24 2 28 -6 4 -7 12 -1 21 7 10 10 11
10 3 0 -7 5 -13 11 -13 12 0 8 40 -6 73 -4 9 -3 17 3 17 5 0 13 -11 16 -25 7
-27 26 -25 26 1 0 8 9 27 21 43 12 17 18 37 15 52 -2 13 -8 39 -12 58 -5 26
-4 32 5 27 7 -5 10 -14 7 -22 -3 -8 -1 -14 5 -14 6 0 7 -5 4 -10 -3 -5 -2 -10
4 -10 10 0 19 27 44 135 30 130 12 373 -36 488 -13 31 -21 37 -45 37 -24 0
-31 -5 -36 -26z m9 -366 c4 -13 8 -30 10 -38 2 -8 11 -39 19 -69 9 -30 14 -57
11 -59 -2 -3 -7 1 -9 9 -2 8 -14 44 -26 81 -12 37 -26 70 -31 74 -10 6 -3 24
10 24 5 0 12 -10 16 -22z m-31 -272 c-3 -12 -1 -34 5 -49 6 -15 7 -29 1 -32
-10 -6 -30 57 -30 99 0 24 2 27 15 16 9 -7 13 -21 9 -34z m-30 -99 c0 -20 -2
-37 -6 -37 -5 0 -8 10 -9 23 -1 28 -4 53 -13 92 -6 29 -5 28 10 -5 9 -19 17
-52 18 -73z m-372 63 c-2 -16 -8 -30 -13 -30 -10 0 -12 43 -2 53 14 14 19 6
15 -23z m365 -132 c-3 -8 -6 -5 -6 6 -1 11 2 17 5 13 3 -3 4 -12 1 -19z m-412
-69 c-10 -15 -25 -10 -19 6 4 8 10 12 15 9 5 -3 7 -10 4 -15z m316 -29 c-8
-27 -19 -46 -23 -42 -8 8 22 92 33 92 3 0 -1 -22 -10 -50z m-86 30 c-13 -21 7
-31 26 -14 22 20 25 7 4 -20 -14 -18 -15 -18 -34 5 -19 24 -19 39 0 39 6 0 7
-4 4 -10z m145 -4 c0 -18 -22 -56 -30 -51 -11 7 8 55 22 55 4 0 8 -2 8 -4z
m-268 -52 c-40 -39 -42 -40 -42 -19 0 8 5 15 11 15 13 0 39 25 39 39 0 6 6 8
14 5 10 -4 4 -15 -22 -40z m62 5 c-12 -13 -20 -16 -22 -9 -3 7 2 16 9 21 25
16 32 9 13 -12z m56 -16 c0 -5 -4 -13 -8 -20 -6 -9 -11 -7 -20 7 -11 17 -10
20 8 20 11 0 20 -3 20 -7z m-100 -24 c-6 -11 -19 -23 -28 -26 -9 -4 -22 -13
-28 -21 -6 -8 -17 -13 -24 -10 -8 2 7 19 36 41 58 43 58 43 44 16z m40 -19 c0
-5 -12 -16 -27 -24 -16 -8 -39 -26 -53 -41 -50 -54 -241 -147 -255 -125 -3 6
-1 11 4 11 20 3 74 22 101 37 8 5 35 19 59 33 45 24 70 43 124 92 31 28 47 34
47 17z m27 -20 c-14 -11 -29 -20 -33 -20 -4 0 1 9 11 20 10 11 25 20 33 20 9
0 6 -7 -11 -20z m-181 -49 c-9 -14 -127 -73 -133 -67 -3 3 -19 -2 -34 -10 -23
-11 -34 -12 -50 -3 -12 6 -35 8 -51 5 -16 -3 -27 -2 -23 3 3 5 -4 7 -15 4 -11
-3 -20 0 -20 6 0 7 22 11 63 10 90 -2 139 7 204 39 60 28 70 31 59 13z m-221
-109 c28 -5 32 -12 7 -12 -30 0 -53 11 -46 22 4 6 9 6 13 2 3 -5 15 -11 26
-12z"/>
<path d="M1168 1225 c2 -14 0 -25 -4 -26 -29 -3 -69 -11 -73 -15 -3 -3 0 -14
7 -24 9 -14 9 -20 1 -20 -8 0 -7 -5 2 -16 15 -18 18 -29 25 -97 3 -26 9 -58
14 -70 l9 -22 2 23 c1 12 3 27 4 32 1 6 3 24 4 42 0 17 3 29 6 26 8 -8 8 -108
0 -164 -4 -32 -3 -54 3 -58 9 -5 23 27 27 67 2 9 3 19 5 22 5 12 3 92 -4 111
-4 15 -2 23 9 28 11 4 15 -2 17 -27 3 -72 2 -104 -5 -137 -7 -33 -6 -33 14 10
21 44 23 76 14 168 -4 50 -23 112 -34 112 -3 0 -12 14 -18 30 -14 36 -32 40
-25 5z m-18 -93 c0 -14 -4 -21 -11 -17 -6 4 -8 14 -5 22 3 8 1 11 -4 8 -11 -7
-14 18 -3 28 9 10 23 -14 23 -41z m46 30 c-2 -2 0 -17 6 -32 6 -20 6 -35 -1
-47 -9 -15 -11 -14 -9 12 1 17 -3 39 -10 51 -9 17 -8 21 4 21 7 0 12 -2 10 -5z
m-31 -72 c3 -5 -1 -10 -10 -10 -9 0 -13 5 -10 10 3 6 8 10 10 10 2 0 7 -4 10
-10z"/>
<path d="M805 1163 c-9 -21 -23 -49 -30 -63 -7 -15 -9 -33 -5 -45 7 -18 9 -17
20 10 6 17 10 31 8 32 -2 1 8 14 22 29 14 15 18 24 10 19 -12 -6 -13 -5 -2 6
14 15 16 49 2 49 -5 0 -16 -17 -25 -37z"/>
<path d="M898 1133 c-8 -10 -24 -34 -33 -53 -10 -19 -20 -30 -22 -24 -2 7 5
28 17 49 23 41 7 44 -22 4 -17 -23 -52 -134 -48 -154 1 -5 3 -33 5 -61 4 -69
32 -152 66 -194 21 -25 25 -36 16 -42 -11 -7 -3 -12 15 -9 4 0 17 -12 29 -29
12 -16 26 -27 31 -24 4 3 8 1 8 -4 0 -17 -30 -22 -36 -7 -4 8 -11 12 -17 8 -5
-3 -7 -1 -4 4 4 6 -5 18 -18 27 -14 9 -24 22 -23 29 2 7 -9 28 -24 47 -15 19
-29 47 -32 62 -2 15 -8 33 -13 40 -4 7 -8 18 -10 23 -1 6 -6 25 -12 43 -8 26
-7 32 5 32 8 0 14 5 14 11 0 5 -4 7 -10 4 -8 -5 -16 39 -11 68 0 4 -6 7 -15 7
-12 0 -14 -12 -11 -70 3 -67 -3 -85 -19 -58 -10 15 -13 48 -5 48 12 0 6 63 -6
68 -8 2 -13 -5 -13 -17 0 -25 -12 -27 -30 -6 -19 23 -28 9 -20 -34 4 -22 4
-45 -1 -52 -4 -7 -5 -17 -2 -22 3 -4 5 -35 5 -68 1 -32 4 -59 8 -59 12 0 30
26 23 34 -12 12 -12 176 0 176 8 0 12 -23 11 -68 0 -79 7 -124 23 -129 7 -3 9
14 6 56 -5 57 -4 59 16 54 21 -5 30 -23 11 -23 -15 0 -12 -44 5 -66 15 -18 15
-16 10 21 -4 31 -2 36 6 22 6 -9 11 -27 13 -40 4 -43 51 -122 101 -172 46 -46
54 -50 95 -49 25 1 52 -4 60 -11 25 -20 55 -23 70 -7 12 13 11 14 -11 9 -29
-6 -68 6 -51 17 21 13 13 28 -11 22 -26 -6 -67 2 -67 14 0 13 32 17 58 8 18
-6 22 -4 22 13 0 19 -5 21 -45 17 -32 -2 -45 1 -45 10 0 7 -16 26 -35 43 -35
31 -45 62 -23 75 8 5 9 2 5 -10 -8 -21 47 -76 77 -76 15 0 17 -3 8 -9 -11 -7
-10 -10 3 -15 24 -9 28 -8 21 9 -3 10 1 15 12 15 15 1 15 2 -2 15 -11 8 -30
15 -42 15 -12 0 -25 7 -28 16 -9 24 -7 29 6 16 15 -15 58 -16 58 -2 0 6 -4 10
-10 10 -5 0 -6 8 -3 18 6 15 5 15 -10 3 -15 -11 -17 -11 -17 2 0 14 -42 32
-66 29 -18 -3 -46 36 -46 64 0 15 -6 41 -13 57 -10 25 -14 27 -22 13 -6 -11
-8 6 -7 51 1 42 6 69 13 71 8 3 11 -8 7 -36 -3 -24 1 -50 11 -68 8 -16 21 -43
28 -61 12 -29 12 -31 -3 -25 -16 6 -16 4 0 -18 9 -14 22 -24 29 -22 7 2 15 -1
18 -5 7 -10 57 -33 71 -33 6 0 5 10 -1 24 -8 16 -17 22 -27 19 -10 -4 -13 -2
-10 8 3 8 11 13 17 12 6 -2 11 4 11 12 0 8 -4 15 -9 15 -4 0 -6 11 -4 24 4 18
0 26 -15 30 -22 7 -47 62 -32 71 5 3 11 -4 15 -15 3 -11 10 -20 15 -20 10 0
-9 81 -22 95 -6 6 -7 3 -3 -7 4 -11 2 -18 -5 -18 -6 0 -9 -4 -5 -9 3 -5 0 -13
-6 -17 -9 -5 -10 6 -6 42 6 44 5 47 -8 30 -16 -21 -14 -90 3 -123 6 -11 8 -24
4 -28 -4 -5 -2 -5 4 -2 12 7 39 -21 49 -52 7 -24 -9 -28 -31 -7 -10 10 -10 16
-2 18 6 2 8 10 4 16 -11 18 -26 15 -26 -5 -1 -10 -10 7 -20 37 -24 67 -20 142
11 183 23 32 22 58 -3 30z m-51 -283 c-2 -36 -16 -58 -18 -27 0 6 -2 24 -3 40
-1 16 3 27 11 27 8 0 12 -13 10 -40z m33 -92 c0 -18 -23 -2 -32 22 -9 23 -8
23 12 5 11 -10 20 -22 20 -27z"/>
<path d="M478 1063 c-20 -3 -30 -14 -42 -43 -17 -43 -33 -57 -48 -42 -7 7 -2
15 15 27 26 16 43 55 25 55 -5 0 -12 -9 -15 -20 -3 -11 -9 -17 -14 -14 -5 3
-6 10 -3 16 4 6 -1 8 -11 6 -12 -2 -18 -15 -21 -42 -2 -22 -7 -42 -11 -45 -5
-3 -8 -24 -7 -46 1 -22 -2 -50 -7 -62 -18 -50 -8 -303 12 -303 5 0 8 6 7 13
-2 6 4 11 12 9 11 -3 11 1 -3 16 -21 23 -22 32 -3 32 8 0 19 -13 25 -30 15
-45 30 -37 21 13 -14 72 -13 212 0 212 1 0 3 23 4 50 2 52 22 115 37 115 5 0
8 3 7 8 -4 19 16 62 28 62 13 0 13 -4 1 -27 -36 -71 -58 -168 -59 -257 -2
-145 5 -199 24 -202 13 -2 15 2 8 20 -8 21 -23 119 -22 141 6 115 22 192 52
260 24 52 33 85 23 84 -4 -1 -20 -4 -35 -6z m-84 -140 c-3 -21 -8 -72 -11
-113 -3 -41 -10 -78 -16 -82 -8 -5 -7 -8 4 -8 24 0 20 -84 -4 -88 -13 -3 -17
4 -18 30 -1 18 -2 47 -3 63 -1 17 4 61 11 99 7 38 10 73 7 78 -3 5 0 15 6 23
6 8 9 19 5 25 -3 5 1 10 10 10 12 0 14 -7 9 -37z"/>
<path d="M532 1030 c-6 -22 -12 -48 -12 -57 0 -16 -2 -16 -11 -3 -9 12 -10 11
-6 -7 3 -13 2 -23 -2 -23 -4 0 -8 -14 -9 -31 -1 -18 -6 -37 -9 -43 -14 -22
-17 -93 -8 -191 4 -44 8 -86 8 -92 0 -7 7 -13 14 -13 8 0 11 5 7 11 -6 10 -16
109 -17 164 -1 27 14 128 19 137 3 4 11 5 19 2 8 -4 13 -9 11 -13 -14 -23 -23
-211 -11 -231 3 -5 1 -10 -4 -10 -6 0 -11 -5 -11 -11 0 -5 5 -7 10 -4 6 4 10
3 9 -2 -3 -19 2 -33 12 -33 8 0 10 12 6 34 -4 25 -1 36 9 40 9 3 14 -1 14 -14
0 -10 4 -21 9 -25 6 -3 8 37 5 100 -4 82 -2 105 8 105 11 0 11 2 0 9 -8 5 -11
19 -8 37 2 16 5 42 5 58 1 16 4 26 8 22 4 -3 7 -56 8 -116 0 -60 4 -112 8
-117 15 -14 24 19 17 60 -4 23 -8 68 -9 100 -1 45 1 57 11 51 10 -6 11 -5 1 8
-7 8 -10 17 -7 20 2 3 -7 6 -21 6 -32 0 -34 -10 -39 -166 -2 -68 -6 -125 -9
-128 -11 -11 -28 8 -23 24 3 10 8 58 11 107 4 50 8 97 10 105 3 8 0 22 -5 30
-8 12 -10 9 -10 -12 0 -16 -5 -28 -10 -28 -6 0 -8 12 -4 28 3 15 6 42 7 60 1
20 7 32 15 32 8 0 12 -6 9 -15 -4 -8 -2 -17 2 -20 9 -5 19 20 28 63 2 14 0 21
-6 18 -5 -4 -12 -2 -16 4 -11 18 -20 10 -33 -30z m38 4 c0 -8 -8 -14 -17 -13
-10 0 -13 3 -6 5 7 3 9 12 6 21 -4 11 -2 14 5 9 7 -4 12 -14 12 -22z"/>
<path d="M315 998 c-10 -50 -11 -58 -19 -119 -3 -26 -9 -55 -13 -65 -4 -11 -3
-15 4 -11 12 8 31 79 38 142 2 22 6 52 10 68 3 15 1 27 -4 27 -4 0 -12 -19
-16 -42z"/>
<path d="M580 990 c0 -5 5 -10 11 -10 5 0 7 5 4 10 -3 6 -8 10 -11 10 -2 0 -4
-4 -4 -10z"/>
<path d="M1436 991 c-4 -7 -5 -15 -2 -18 9 -9 19 4 14 18 -4 11 -6 11 -12 0z"/>
<path d="M1440 936 c0 -26 25 -86 35 -86 6 0 -3 44 -12 70 -4 8 -7 18 -7 22
-3 21 -16 17 -16 -6z"/>
<path d="M630 890 c0 -5 5 -10 11 -10 5 0 7 5 4 10 -3 6 -8 10 -11 10 -2 0 -4
-4 -4 -10z"/>
<path d="M280 700 c0 -93 11 -144 22 -102 3 10 1 27 -4 37 -6 10 -6 20 -2 24
12 8 13 61 1 61 -5 0 -7 11 -5 24 3 14 1 31 -3 38 -5 7 -9 -27 -9 -82z"/>
<path d="M739 583 c0 -5 -2 -16 -4 -25 -2 -10 1 -18 6 -18 5 0 9 -6 9 -14 0
-8 7 -16 15 -20 8 -3 15 -11 15 -18 0 -7 14 -24 30 -38 17 -14 30 -29 30 -35
0 -6 14 -16 30 -23 17 -8 28 -17 26 -21 -3 -4 11 -7 30 -6 47 0 44 15 -7 36
-31 11 -60 36 -101 85 -32 38 -58 77 -58 87 0 16 -19 25 -21 10z"/>
<path d="M115 510 c-3 -5 2 -23 11 -40 13 -20 20 -26 26 -17 10 16 27 -2 30
-33 2 -14 10 -31 18 -38 8 -8 9 -11 3 -7 -18 9 -16 1 8 -26 12 -13 27 -33 35
-43 25 -36 26 -9 1 31 -13 21 -22 48 -20 61 2 14 -1 21 -7 17 -5 -3 -10 -3
-10 2 0 4 -12 21 -26 37 -19 22 -28 26 -34 16 -6 -9 -10 -6 -16 11 -4 13 -7
27 -6 32 3 10 -6 9 -13 -3z"/>
<path d="M668 440 c9 -16 20 -30 24 -30 4 0 17 -18 27 -39 26 -50 118 -129
162 -138 30 -6 32 -5 21 9 -7 9 -27 19 -45 22 -25 5 -29 9 -17 16 12 8 11 10
-5 10 -22 0 -46 23 -58 54 -4 11 -13 16 -22 12 -11 -4 -20 4 -27 22 -16 35
-58 92 -69 92 -4 0 0 -13 9 -30z"/>
<path d="M540 412 c0 -5 28 -52 62 -103 34 -52 61 -101 60 -109 -2 -10 0 -11
5 -3 6 8 15 6 33 -8 48 -38 105 -73 116 -71 6 1 17 -5 24 -13 7 -8 21 -15 31
-15 11 0 19 -4 19 -8 0 -4 10 -8 23 -7 12 0 22 -4 22 -10 0 -14 -43 -7 -85 12
-19 10 -40 18 -45 19 -22 3 -115 66 -115 77 0 5 -3 7 -6 4 -10 -9 -44 12 -44
27 0 8 -7 19 -15 26 -8 7 -12 16 -9 21 3 5 0 9 -6 9 -6 0 -8 5 -5 10 4 6 1 9
-5 8 -10 -2 -69 87 -84 127 -2 6 -7 7 -11 3 -4 -4 -2 -14 4 -22 7 -8 10 -19 7
-25 -3 -5 -3 -11 2 -13 8 -3 72 -104 72 -114 0 -11 71 -75 131 -118 40 -30 55
-47 53 -61 -3 -19 -2 -19 11 -2 12 17 16 17 49 3 20 -8 36 -19 36 -23 0 -12
-38 -14 -45 -2 -9 14 -25 11 -25 -5 0 -8 17 -16 46 -20 74 -10 79 -8 53 14
l-24 19 28 -1 c15 -2 27 -8 27 -15 0 -7 9 -13 20 -13 25 0 27 20 3 21 -13 0
-12 3 5 10 29 11 47 2 33 -15 -6 -7 -9 -15 -6 -18 7 -7 102 0 140 10 23 7 15
8 -37 8 -68 0 -93 8 -68 24 10 6 4 12 -25 24 -20 9 -43 16 -49 16 -6 0 -33 11
-59 24 -27 13 -56 22 -66 19 -27 -7 -178 128 -165 148 4 8 3 9 -4 5 -11 -7
-43 37 -73 98 -14 29 -39 47 -39 28z"/>
<path d="M240 402 c0 -7 12 -31 26 -54 23 -36 25 -45 14 -62 -10 -17 -10 -19
0 -9 10 9 19 3 42 -33 17 -24 34 -44 39 -44 13 0 11 13 -7 38 -8 12 -12 22 -7
22 4 0 -3 7 -15 16 -26 18 -29 34 -4 34 14 0 15 -2 2 -10 -9 -6 -10 -10 -3
-10 7 0 31 -27 54 -61 48 -72 91 -115 122 -122 16 -4 7 8 -30 41 -48 44 -120
154 -126 192 -3 21 -26 50 -38 50 -5 0 -6 -15 -3 -32 l5 -33 -18 24 c-36 50
-52 66 -53 53z"/>
<path d="M410 385 c0 -20 22 -67 42 -89 10 -11 18 -26 18 -33 0 -7 4 -13 9
-13 5 0 12 -9 16 -19 3 -11 24 -36 46 -58 45 -43 77 -90 43 -63 -41 33 -134
128 -134 138 0 6 -11 24 -25 40 -18 22 -22 32 -13 35 10 4 10 6 0 6 -7 1 -10
6 -7 11 3 6 2 10 -4 10 -5 0 -13 9 -16 20 -5 16 -35 30 -35 16 0 -22 95 -172
134 -214 28 -29 50 -60 48 -68 -2 -9 5 -14 21 -14 13 0 27 -3 31 -7 3 -4 16
-8 28 -10 12 -2 45 -14 72 -27 62 -29 106 -40 106 -26 0 5 -4 10 -8 10 -5 0
-17 7 -28 16 -10 8 -13 12 -6 9 10 -5 13 -2 10 10 -2 15 -54 51 -115 81 -7 3
-13 10 -13 16 0 5 -19 29 -43 54 -24 24 -58 75 -77 114 -19 38 -41 70 -47 70
-16 0 -16 -5 2 -39 8 -16 11 -32 7 -36 -4 -5 -2 -5 5 -2 7 5 16 -5 22 -26 7
-19 28 -53 47 -76 20 -23 34 -44 32 -47 -5 -4 -32 25 -79 84 -5 6 -7 12 -3 12
4 0 -5 13 -20 29 -15 16 -28 35 -30 42 -8 49 -36 82 -36 44z m248 -294 c-13
-4 -68 49 -68 67 0 8 17 -3 39 -24 22 -22 35 -41 29 -43z m69 -27 c-3 -3 -12
-4 -19 -1 -8 3 -5 6 6 6 11 1 17 -2 13 -5z"/>
</g>
</svg>
